<svg xmlns="http://www.w3.org/2000/svg" viewBox="0 0 100 100">
<polyline fill="none" stroke="#3E78FF" stroke-width="9" stroke-linecap="round" stroke-linejoin="round" points="85,50 84.925,51.566 84.701,53.106 84.327,54.592 83.807,56 83.143,57.305 82.336,58.485 81.391,59.52 80.311,60.392 79.101,61.087 77.767,61.591 76.314,61.897 74.749,62 73.077,61.897 71.307,61.591 69.445,61.087 67.5,60.392 65.48,59.52 63.394,58.485 61.25,57.305 59.059,56 56.828,54.592 54.568,53.106 52.289,51.566 50,50 47.711,48.434 45.432,46.894 43.172,45.408 40.941,44 38.75,42.695 36.606,41.515 34.52,40.48 32.5,39.608 30.555,38.913 28.693,38.409 26.923,38.103 25.251,38 23.686,38.103 22.233,38.409 20.899,38.913 19.689,39.608 18.609,40.48 17.664,41.515 16.857,42.695 16.193,44 15.673,45.408 15.299,46.894 15.075,48.434 15,50 15.075,51.566 15.299,53.106 15.673,54.592 16.193,56 16.857,57.305 17.664,58.485 18.609,59.52 19.689,60.392 20.899,61.087 22.233,61.591 23.686,61.897 25.251,62 26.923,61.897 28.693,61.591 30.555,61.087 32.5,60.392 34.52,59.52 36.606,58.485 38.75,57.305 40.941,56 43.172,54.592 45.432,53.106 47.711,51.566 50,50 52.289,48.434 54.568,46.894 56.828,45.408 59.059,44 61.25,42.695 63.394,41.515 65.48,40.48 67.5,39.608 69.445,38.913 71.307,38.409 73.077,38.103 74.749,38 76.314,38.103 77.767,38.409 79.101,38.913 80.311,39.608 81.391,40.48 82.336,41.515 83.143,42.695 83.807,44 84.327,45.408 84.701,46.894 84.925,48.434 85,50 "/>
</svg>
